<svg width="108" height="22" viewBox="0 0 108 22" fill="none" xmlns="http://www.w3.org/2000/svg">
<path d="M29.312 4.72H33.264C35.088 4.72 36.5013 5.21067 37.504 6.192C38.5067 7.17333 39.008 8.56 39.008 10.352C39.008 12.144 38.5067 13.536 37.504 14.528C36.5013 15.5093 35.088 16 33.264 16H29.312V4.72ZM33.168 14.624C35.9413 14.624 37.328 13.2 37.328 10.352C37.328 7.51467 35.9413 6.096 33.168 6.096H30.96V14.624H33.168ZM44.3215 8C45.3668 8 46.1402 8.26133 46.6415 8.784C47.1535 9.30667 47.4095 10.1013 47.4095 11.168V16H45.8575V14.704C45.6548 15.1627 45.3508 15.5147 44.9455 15.76C44.5508 15.9947 44.0868 16.112 43.5535 16.112C43.0415 16.112 42.5722 16.0107 42.1455 15.808C41.7188 15.5947 41.3828 15.3013 41.1375 14.928C40.9028 14.5547 40.7855 14.1387 40.7855 13.68C40.7855 13.1147 40.9295 12.672 41.2175 12.352C41.5162 12.0213 42.0015 11.7867 42.6735 11.648C43.3562 11.5093 44.2895 11.44 45.4735 11.44H45.8415V10.976C45.8415 10.3787 45.7135 9.94667 45.4575 9.68C45.2122 9.41333 44.8068 9.28 44.2415 9.28C43.3562 9.28 42.4708 9.552 41.5855 10.096L41.1055 8.96C41.5215 8.672 42.0228 8.44267 42.6095 8.272C43.2068 8.09067 43.7775 8 44.3215 8ZM43.8415 14.912C44.4282 14.912 44.9082 14.7147 45.2815 14.32C45.6548 13.9147 45.8415 13.3973 45.8415 12.768V12.352H45.5535C44.7215 12.352 44.0815 12.3893 43.6335 12.464C43.1855 12.5387 42.8655 12.6667 42.6735 12.848C42.4815 13.0187 42.3855 13.2693 42.3855 13.6C42.3855 13.9733 42.5188 14.288 42.7855 14.544C43.0628 14.7893 43.4148 14.912 43.8415 14.912ZM54.372 9.36L53.396 9.456C52.628 9.53067 52.0733 9.76533 51.732 10.16C51.4013 10.5547 51.236 11.056 51.236 11.664V16H49.62V8.192H51.188V9.552C51.604 8.63467 52.452 8.128 53.732 8.032L54.26 8L54.372 9.36ZM62.8394 16H60.7914L57.0954 12.32V16H55.4794V4.72H57.0954V11.712L60.5194 8.208H62.5194L58.8234 11.952L62.8394 16ZM77.6598 4.72H78.9718V16H77.4838L77.4998 7.84L74.1398 14.192H73.0198L69.6438 7.92L69.6598 16H68.1718V4.72H69.4998L73.5958 12.528L77.6598 4.72ZM84.8089 16.112C84.0409 16.112 83.3635 15.9467 82.7769 15.616C82.2009 15.2853 81.7529 14.816 81.4329 14.208C81.1235 13.5893 80.9689 12.8747 80.9689 12.064C80.9689 11.2427 81.1235 10.528 81.4329 9.92C81.7529 9.30133 82.2009 8.82667 82.7769 8.496C83.3635 8.16533 84.0409 8 84.8089 8C85.5769 8 86.2489 8.16533 86.8249 8.496C87.4115 8.82667 87.8595 9.30133 88.1689 9.92C88.4889 10.528 88.6489 11.2427 88.6489 12.064C88.6489 12.8747 88.4889 13.5893 88.1689 14.208C87.8595 14.816 87.4115 15.2853 86.8249 15.616C86.2489 15.9467 85.5769 16.112 84.8089 16.112ZM84.8089 14.832C85.5235 14.832 86.0675 14.5973 86.4409 14.128C86.8249 13.6587 87.0169 12.9707 87.0169 12.064C87.0169 11.168 86.8249 10.4853 86.4409 10.016C86.0569 9.536 85.5129 9.296 84.8089 9.296C84.1049 9.296 83.5609 9.536 83.1769 10.016C82.7929 10.4853 82.6009 11.168 82.6009 12.064C82.6009 12.9707 82.7875 13.6587 83.1609 14.128C83.5449 14.5973 84.0942 14.832 84.8089 14.832ZM97.6481 4.72V16H96.0481V14.656C95.8135 15.1253 95.4721 15.488 95.0241 15.744C94.5761 15.9893 94.0588 16.112 93.4721 16.112C92.8001 16.112 92.1975 15.9413 91.6641 15.6C91.1415 15.2587 90.7308 14.7787 90.4321 14.16C90.1441 13.5413 90.0001 12.832 90.0001 12.032C90.0001 11.2213 90.1441 10.512 90.4321 9.904C90.7308 9.296 91.1415 8.82667 91.6641 8.496C92.1868 8.16533 92.7895 8 93.4721 8C94.0588 8 94.5708 8.128 95.0081 8.384C95.4561 8.62933 95.7975 8.98133 96.0321 9.44V4.72H97.6481ZM93.8561 14.832C94.5601 14.832 95.0988 14.592 95.4721 14.112C95.8561 13.632 96.0481 12.9493 96.0481 12.064C96.0481 11.1787 95.8561 10.496 95.4721 10.016C95.0988 9.536 94.5601 9.296 93.8561 9.296C93.1521 9.296 92.6028 9.536 92.2081 10.016C91.8241 10.4853 91.6321 11.1573 91.6321 12.032C91.6321 12.9067 91.8295 13.5947 92.2241 14.096C92.6188 14.5867 93.1628 14.832 93.8561 14.832ZM106.589 12.368H101.069C101.187 14.0213 102.008 14.848 103.533 14.848C104.429 14.848 105.24 14.5547 105.965 13.968L106.461 15.104C106.099 15.4133 105.651 15.6587 105.117 15.84C104.584 16.0213 104.04 16.112 103.485 16.112C102.237 16.112 101.251 15.7547 100.525 15.04C99.8106 14.3253 99.4533 13.3387 99.4533 12.08C99.4533 11.28 99.6079 10.5707 99.9173 9.952C100.237 9.33333 100.68 8.85333 101.245 8.512C101.821 8.17067 102.472 8 103.197 8C104.253 8 105.08 8.34133 105.677 9.024C106.285 9.70667 106.589 10.6507 106.589 11.856V12.368ZM103.229 9.184C102.611 9.184 102.115 9.38133 101.741 9.776C101.379 10.16 101.16 10.7147 101.085 11.44H105.197C105.165 10.7147 104.979 10.16 104.637 9.776C104.307 9.38133 103.837 9.184 103.229 9.184Z" fill="#111517"/>
<path fill-rule="evenodd" clip-rule="evenodd" d="M13.5532 13.815C9.66857 13.815 6.51929 10.9278 6.51929 7.36821C6.51929 6.0253 6.96679 4.78158 7.73143 3.75C4.69036 4.69515 2.5 7.33122 2.5 10.4381C2.5 14.3385 5.94929 17.5 10.2036 17.5C13.5929 17.5 16.4696 15.4932 17.5 12.7045C16.375 13.4048 15.0161 13.815 13.5532 13.815Z" fill="white" stroke="#111517" stroke-width="1.25"/>
</svg>
